<mxfile host="Electron" modified="2024-02-04T12:34:01.521Z" agent="Mozilla/5.0 (Windows NT 10.0; Win64; x64) AppleWebKit/537.36 (KHTML, like Gecko) draw.io/23.0.2 Chrome/120.0.6099.109 Electron/28.1.0 Safari/537.36" etag="X5Oc4QhztBJKbhoTusaf" version="23.0.2" type="device">
  <diagram name="Page-1" id="H9Du5VAVIZfBXyNv0gKZ">
    <mxGraphModel dx="794" dy="511" grid="1" gridSize="10" guides="1" tooltips="1" connect="1" arrows="1" fold="1" page="1" pageScale="1" pageWidth="827" pageHeight="1169" math="0" shadow="0">
      <root>
        <mxCell id="0" />
        <mxCell id="1" parent="0" />
        <UserObject label="Public User" type="externalEntity" source="" flow="Search for Information" placeholders="1" id="xb94IvjUrw98wPTPbVho-1">
          <mxCell style="shape=rectangle;whiteSpace=wrap;html=1;fillColor=#ffffff;strokeColor=#000000;align=center;verticalAlign=middle;fontColor=#232F3E;" vertex="1" parent="1">
            <mxGeometry width="85" height="35" as="geometry" />
          </mxCell>
        </UserObject>
        <UserObject label="Applicant" type="externalEntity" source="" flow="Request Pre-Application Assistance,Submit Application" placeholders="1" id="xb94IvjUrw98wPTPbVho-2">
          <mxCell style="shape=rectangle;whiteSpace=wrap;html=1;fillColor=#ffffff;strokeColor=#000000;align=center;verticalAlign=middle;fontColor=#232F3E;" vertex="1" parent="1">
            <mxGeometry y="127.5" width="75" height="35" as="geometry" />
          </mxCell>
        </UserObject>
        <UserObject label="Search for Information" type="process" source="1" flow="Public Information" placeholders="1" id="xb94IvjUrw98wPTPbVho-3">
          <mxCell style="shape=ellipse;perimeter=ellipsePerimeter;whiteSpace=wrap;html=1;fillColor=#ffffff;strokeColor=#000000;align=center;verticalAlign=middle;fontColor=#232F3E;" vertex="1" parent="1">
            <mxGeometry x="185" width="145" height="35" as="geometry" />
          </mxCell>
        </UserObject>
        <UserObject label="Request Pre-Application Assistance" type="process" source="2" flow="Pre-Application Assistance Response" placeholders="1" id="xb94IvjUrw98wPTPbVho-4">
          <mxCell style="shape=ellipse;perimeter=ellipsePerimeter;whiteSpace=wrap;html=1;fillColor=#ffffff;strokeColor=#000000;align=center;verticalAlign=middle;fontColor=#232F3E;" vertex="1" parent="1">
            <mxGeometry x="175" y="95" width="215" height="35" as="geometry" />
          </mxCell>
        </UserObject>
        <UserObject label="Submit Application" type="process" source="2" flow="Application Information" placeholders="1" id="xb94IvjUrw98wPTPbVho-5">
          <mxCell style="shape=ellipse;perimeter=ellipsePerimeter;whiteSpace=wrap;html=1;fillColor=#ffffff;strokeColor=#000000;align=center;verticalAlign=middle;fontColor=#232F3E;" vertex="1" parent="1">
            <mxGeometry x="220" y="160" width="125" height="35" as="geometry" />
          </mxCell>
        </UserObject>
        <UserObject label="Perform a Completeness Review" type="process" source="Staff" flow="Completeness Review Outcome" placeholders="1" id="xb94IvjUrw98wPTPbVho-6">
          <mxCell style="shape=ellipse;perimeter=ellipsePerimeter;whiteSpace=wrap;html=1;fillColor=#ffffff;strokeColor=#000000;align=center;verticalAlign=middle;fontColor=#232F3E;" vertex="1" parent="1">
            <mxGeometry y="255" width="205" height="35" as="geometry" />
          </mxCell>
        </UserObject>
        <UserObject label="Send a Formal Response" type="process" source="Staff" flow="Formal Response to Applicant" placeholders="1" id="xb94IvjUrw98wPTPbVho-7">
          <mxCell style="shape=ellipse;perimeter=ellipsePerimeter;whiteSpace=wrap;html=1;fillColor=#ffffff;strokeColor=#000000;align=center;verticalAlign=middle;fontColor=#232F3E;" vertex="1" parent="1">
            <mxGeometry x="20" y="320" width="165" height="35" as="geometry" />
          </mxCell>
        </UserObject>
        <UserObject label="Public Information" type="dataStore" source="3" flow="" placeholders="1" id="xb94IvjUrw98wPTPbVho-8">
          <mxCell style="html=1;dashed=0;whiteSpace=wrap;shape=partialRectangle;right=0;left=0;" vertex="1" parent="1">
            <mxGeometry x="430" width="125" height="35" as="geometry" />
          </mxCell>
        </UserObject>
        <UserObject label="Pre-Application Assistance Response" type="dataStore" source="4" flow="" placeholders="1" id="xb94IvjUrw98wPTPbVho-9">
          <mxCell style="html=1;dashed=0;whiteSpace=wrap;shape=partialRectangle;right=0;left=0;" vertex="1" parent="1">
            <mxGeometry x="490" y="95" width="225" height="35" as="geometry" />
          </mxCell>
        </UserObject>
        <UserObject label="Application Information" type="dataStore" source="5" flow="Completeness Review,Formal Response" placeholders="1" id="xb94IvjUrw98wPTPbVho-10">
          <mxCell style="html=1;dashed=0;whiteSpace=wrap;shape=partialRectangle;right=0;left=0;" vertex="1" parent="1">
            <mxGeometry x="525" y="160" width="155" height="35" as="geometry" />
          </mxCell>
        </UserObject>
        <UserObject label="Staff" type="externalEntity" source="6,7" flow="Completeness Review,Formal Response" placeholders="1" id="xb94IvjUrw98wPTPbVho-11">
          <mxCell style="shape=rectangle;whiteSpace=wrap;html=1;fillColor=#ffffff;strokeColor=#000000;align=center;verticalAlign=middle;fontColor=#232F3E;" vertex="1" parent="1">
            <mxGeometry x="500" y="285" width="55" height="35" as="geometry" />
          </mxCell>
        </UserObject>
        <mxCell id="xb94IvjUrw98wPTPbVho-12" value="Public Information" style="endArrow=blockThin;endFill=1;fontSize=11;orthogonal=1;noEdgeStyle=1;" edge="1" parent="1" source="xb94IvjUrw98wPTPbVho-1" target="xb94IvjUrw98wPTPbVho-3">
          <mxGeometry relative="1" as="geometry">
            <Array as="points">
              <mxPoint x="97" y="17.5" />
              <mxPoint x="173" y="17.5" />
            </Array>
          </mxGeometry>
        </mxCell>
        <mxCell id="xb94IvjUrw98wPTPbVho-13" value="Pre-Application Assistance Response" style="endArrow=blockThin;endFill=1;fontSize=11;orthogonal=1;noEdgeStyle=1;" edge="1" parent="1" source="xb94IvjUrw98wPTPbVho-2" target="xb94IvjUrw98wPTPbVho-4">
          <mxGeometry relative="1" as="geometry">
            <Array as="points">
              <mxPoint x="87" y="138.75" />
              <mxPoint x="163" y="112.5" />
            </Array>
          </mxGeometry>
        </mxCell>
        <mxCell id="xb94IvjUrw98wPTPbVho-14" value="Application Information" style="endArrow=blockThin;endFill=1;fontSize=11;orthogonal=1;noEdgeStyle=1;" edge="1" parent="1" source="xb94IvjUrw98wPTPbVho-2" target="xb94IvjUrw98wPTPbVho-5">
          <mxGeometry relative="1" as="geometry">
            <Array as="points">
              <mxPoint x="87" y="151.25" />
              <mxPoint x="163" y="177.5" />
            </Array>
          </mxGeometry>
        </mxCell>
        <mxCell id="xb94IvjUrw98wPTPbVho-15" value="" style="endArrow=blockThin;endFill=1;fontSize=11;orthogonal=1;noEdgeStyle=1;" edge="1" parent="1" source="xb94IvjUrw98wPTPbVho-3" target="xb94IvjUrw98wPTPbVho-8">
          <mxGeometry relative="1" as="geometry">
            <Array as="points">
              <mxPoint x="342" y="17.5" />
              <mxPoint x="418" y="17.5" />
            </Array>
          </mxGeometry>
        </mxCell>
        <mxCell id="xb94IvjUrw98wPTPbVho-16" value="" style="endArrow=blockThin;endFill=1;fontSize=11;orthogonal=1;noEdgeStyle=1;" edge="1" parent="1" source="xb94IvjUrw98wPTPbVho-4" target="xb94IvjUrw98wPTPbVho-9">
          <mxGeometry relative="1" as="geometry">
            <Array as="points">
              <mxPoint x="402" y="112.5" />
              <mxPoint x="478" y="112.5" />
            </Array>
          </mxGeometry>
        </mxCell>
        <mxCell id="xb94IvjUrw98wPTPbVho-17" value="Completeness Review,Formal Response" style="endArrow=blockThin;endFill=1;fontSize=11;orthogonal=1;noEdgeStyle=1;" edge="1" parent="1" source="xb94IvjUrw98wPTPbVho-5" target="xb94IvjUrw98wPTPbVho-10">
          <mxGeometry relative="1" as="geometry">
            <Array as="points">
              <mxPoint x="402" y="177.5" />
              <mxPoint x="478" y="177.5" />
            </Array>
          </mxGeometry>
        </mxCell>
        <mxCell id="xb94IvjUrw98wPTPbVho-18" value="Completeness Review,Formal Response" style="endArrow=blockThin;endFill=1;fontSize=11;orthogonal=1;noEdgeStyle=1;" edge="1" parent="1" source="xb94IvjUrw98wPTPbVho-6" target="xb94IvjUrw98wPTPbVho-11">
          <mxGeometry relative="1" as="geometry">
            <Array as="points">
              <mxPoint x="217" y="272.5" />
              <mxPoint x="293" y="298.75" />
            </Array>
          </mxGeometry>
        </mxCell>
        <mxCell id="xb94IvjUrw98wPTPbVho-19" value="Completeness Review,Formal Response" style="endArrow=blockThin;endFill=1;fontSize=11;orthogonal=1;noEdgeStyle=1;" edge="1" parent="1" source="xb94IvjUrw98wPTPbVho-7" target="xb94IvjUrw98wPTPbVho-11">
          <mxGeometry relative="1" as="geometry">
            <Array as="points">
              <mxPoint x="217" y="337.5" />
              <mxPoint x="293" y="311.25" />
            </Array>
          </mxGeometry>
        </mxCell>
      </root>
    </mxGraphModel>
  </diagram>
</mxfile>
